<?xml version="1.0" encoding="UTF-8"?><svg id="Camada_2" xmlns="http://www.w3.org/2000/svg" viewBox="0 0 511.06 511.03"><g id="Camada_1-2"><path d="M275.41,0c5.75,1.54,12.32,1.34,18.31,2.14,107.57,14.24,196.24,98.98,213.85,206.24l3.28,25.16c-.45,10.21.61,20.78,0,30.94-10.13,167.6-183.63,276.47-340.45,217.32-10.25-3.87-19.82-9.67-30.14-12.78L5.6,511.03c-3.73-1.44-6.84-4.89-5.1-9.05l42.43-125.34-.42-3.39C-51.11,213.44,61.71,10.7,244.49,0h30.93ZM78.88,434.15l68.34-21.48c10.09,4.12,19.04,10.73,29.06,15.35,108.08,49.89,237.46-6.64,273.23-119.61,33.33-105.26-27.45-216.98-132.2-248.02C145.1,9.35-1.93,192.81,89.04,349.63c4.31,7.44,12.93,14.6,10.34,23.71l-20.5,60.82Z"/><path d="M190.39,132.02c7.73,0,12.11,3.02,16.01,9.38,5.57,9.09,18.75,40.51,21.85,51,4.82,16.28-10.42,26.8-18.66,38.62,15.47,24.53,40.26,49.79,66.16,63.57,3.43,1.83,15.26,8.15,18.18,5.9,6.6-6.02,17.21-25.33,24.38-28.54,8.32-3.73,15.96,1.12,23.63,4.32,11.51,4.81,32.17,14.01,42.14,20.72,7.87,5.3,6.86,13.77,5.95,22.75-3.6,35.59-40.71,52.33-73.09,48.41-69.95-8.47-147.23-73.02-174.38-136.94-17.85-42.01-7-99.14,47.84-99.2Z"/></g></svg>